<svg width="14" height="14" viewBox="0 0 14 14" fill="none" xmlns="http://www.w3.org/2000/svg">
<g clip-path="url(#clip0)">
<path d="M13.902 2.48942L12.0418 0.854614C11.9847 0.804132 11.9089 0.77846 11.834 0.783767C11.7581 0.788786 11.6873 0.823636 11.6371 0.880859L4.89001 8.56022L2.49096 5.38484C2.44522 5.32432 2.37709 5.28431 2.3018 5.27398C2.22665 5.2628 2.14992 5.28316 2.0894 5.3292L0.113436 6.82187C-0.0129125 6.91739 -0.03801 7.09723 0.0575042 7.22358L4.49963 13.1031C4.55155 13.1718 4.63186 13.2136 4.71791 13.2168C4.72135 13.2168 4.72494 13.2168 4.72838 13.2168C4.8107 13.2168 4.88929 13.1815 4.94393 13.1193L13.928 2.89414C14.0327 2.77524 14.0211 2.59382 13.902 2.48942Z" fill="#85B700"/>
</g>
<defs>
<clipPath id="clip0">
<rect width="14" height="14" fill="white"/>
</clipPath>
</defs>
</svg>
